<svg id="Layer_1" data-name="Layer 1" xmlns="http://www.w3.org/2000/svg" viewBox="0 0 142.31 100"><defs><style>.cls-1{fill:#0871b9}.cls-2{fill:#2b2868}.cls-3{fill:#098bca}.cls-4{fill:#009a9d}.cls-5{fill:#fff}.cls-6{fill:#2d8889}.cls-7{fill:#335e98}.cls-8{fill:#2d74a5}</style></defs><title>logo</title><path class="cls-1" d="M264.59 105.38h.7l2.49 6.31h-.65l-.67-1.69h-3.16l-.67 1.69H262zm.31.59l-1.37 3.48h2.72zM268.38 108.16a10.77 10.77 0 0 0 0-1.08h.55v.82a1.45 1.45 0 0 1 1.48-.93 1.51 1.51 0 0 1 1.56 1.77v2.95h-.57v-2.8c0-.87-.3-1.43-1.09-1.43a1.45 1.45 0 0 0-1.36 1.68v2.55h-.57v-3.53zM277.4 107.56h-1v3a.63.63 0 0 0 .61.76 1.52 1.52 0 0 0 .56-.11v.47a2.07 2.07 0 0 1-.69.13c-1 0-1-.7-1-1.54v-2.69h-.9v-.49h.9v-.84l.57-.56v1.4h1v.49zM282.75 109.48a2.27 2.27 0 1 1-4.54 0v-4.1h.62v4.1a1.66 1.66 0 1 0 3.3 0v-4.1h.62v4.1zm-2-5.65h.71l-1.13 1.3H280zM287.59 111.68l-.57-.73a1.47 1.47 0 0 1-1.43.84c-1.26 0-1.89-1-1.89-2.41s.54-2.41 1.89-2.41a1.55 1.55 0 0 1 1.43.89v-2.67l.55-.63v7.14zm-1.92-.38c1 0 1.36-1.08 1.36-1.92s-.35-1.92-1.36-1.92-1.36 1-1.36 1.92.28 1.92 1.36 1.92M291.36 110.94a1.61 1.61 0 0 1-1.45.85 1.3 1.3 0 0 1-1.51-1.3c0-1.54 1.64-1.62 2.82-1.62h.11v-.23c0-.79.17-1.18-.59-1.18a2.42 2.42 0 0 0-1.35.38v-.55a3.6 3.6 0 0 1 1.35-.32c1.13 0 1.16.52 1.16 1.71v2a6.75 6.75 0 0 0 0 1h-.56v-.74zm-.05-1.58h-.16c-1 0-2.15.1-2.15 1.11a.82.82 0 0 0 1 .83 1.37 1.37 0 0 0 1.36-1.66v-.28zM293 108.1a8.31 8.31 0 0 0 0-1h.57v.9a1.36 1.36 0 0 1 1.18-1 1.71 1.71 0 0 1 .39.05v.6a1.51 1.51 0 0 0-.41-.05c-.9 0-1.14 1-1.14 1.84v2.28H293v-3.62zM298.39 110.94a1.61 1.61 0 0 1-1.45.85 1.3 1.3 0 0 1-1.51-1.3c0-1.54 1.64-1.62 2.82-1.62h.11v-.23c0-.79.17-1.18-.59-1.18a2.43 2.43 0 0 0-1.35.38v-.55a3.61 3.61 0 0 1 1.35-.32c1.13 0 1.16.52 1.16 1.71v2a6.76 6.76 0 0 0 0 1h-.56v-.74zm-.05-1.58h-.16c-1 0-2.15.1-2.15 1.11a.82.82 0 0 0 1 .83 1.38 1.38 0 0 0 1.36-1.66v-.28zm-.73-4.06h.71l-1.13 1.3h-.41zM299.77 111a2.31 2.31 0 0 0 1.1.29.9.9 0 0 0 1-.82c0-1.09-2.2-.92-2.2-2.26a1.29 1.29 0 0 1 1.49-1.26 3.56 3.56 0 0 1 1.13.21l-.14.49a2.26 2.26 0 0 0-.92-.22.79.79 0 0 0-1 .77c0 .86 2.25.75 2.25 2.26a1.41 1.41 0 0 1-1.6 1.31 3.45 3.45 0 0 1-1.29-.21zM310.13 109.48a2.27 2.27 0 1 1-4.55 0v-4.1h.62v4.1a1.66 1.66 0 1 0 3.31 0v-4.1h.62v4.1zM316.87 111.68v-3.06a1 1 0 0 0-1-1.17c-.62 0-1.23.53-1.23 1.68v2.55h-.57v-3.06a1 1 0 0 0-1-1.17c-.62 0-1.23.53-1.23 1.68v2.55h-.57v-3.52-1.08h.55v.78a1.44 1.44 0 0 1 1.43-.89 1.15 1.15 0 0 1 1.21 1 1.54 1.54 0 0 1 1.46-1 1.4 1.4 0 0 1 1.45 1.55v3.17h-.57z" transform="translate(-210 -25)"/><path class="cls-1" d="M110.85 80.38h2.98v.54h-2.36v2.25h2.26v.54h-2.26v2.97h-.62v-6.3z"/><path class="cls-1" d="M324.63 105.08l.57-.54v3.31a1.55 1.55 0 0 1 1.43-.89c1.23 0 1.56.82 1.56 2v2.76h-.57v-2.75c0-.79-.15-1.48-1.09-1.48a1.52 1.52 0 0 0-1.36 1.76v2.47h-.57v-6.6zM332 110.94a1.61 1.61 0 0 1-1.45.85 1.3 1.3 0 0 1-1.51-1.3c0-1.54 1.64-1.62 2.82-1.62h.14v-.23c0-.79.17-1.18-.59-1.18a2.42 2.42 0 0 0-1.35.38v-.55a3.61 3.61 0 0 1 1.35-.32c1.13 0 1.16.52 1.16 1.71v2a6.6 6.6 0 0 0 0 1H332v-.74zm0-1.58h-.16c-1 0-2.15.1-2.15 1.11a.82.82 0 0 0 1 .83 1.37 1.37 0 0 0 1.36-1.66v-.28zM334 105.08a.39.39 0 0 1 0 .76.39.39 0 0 1 0-.76m-.29 2h.57v4.61h-.57v-4.61zM335.18 111a2.31 2.31 0 0 0 1.1.29.9.9 0 0 0 1-.82c0-1.09-2.2-.92-2.2-2.26a1.29 1.29 0 0 1 1.49-1.26 3.56 3.56 0 0 1 1.13.21l-.14.49a2.27 2.27 0 0 0-.93-.22.79.79 0 0 0-1 .77c0 .86 2.26.75 2.26 2.26a1.42 1.42 0 0 1-1.6 1.31 3.44 3.44 0 0 1-1.28-.21zM338.71 108.16v-1.08h.55v.82a1.46 1.46 0 0 1 1.48-.93 1.51 1.51 0 0 1 1.56 1.77v2.95h-.57v-2.8c0-.87-.3-1.43-1.09-1.43a1.45 1.45 0 0 0-1.36 1.68v2.55h-.57v-3.53zM346.55 111.53a3.75 3.75 0 0 1-1.33.25c-1.52 0-2.08-1-2.08-2.41s.77-2.41 1.93-2.41 1.82 1 1.82 2.29v.29h-3.14a1.56 1.56 0 0 0 1.51 1.76 2.21 2.21 0 0 0 1.11-.34zm-.27-2.53a1.34 1.34 0 0 0-1.17-1.6 1.5 1.5 0 0 0-1.35 1.6h2.52zm-.94-3.76h.66l-1.13 1.3h-.37zM348 105.08a.39.39 0 0 1 0 .76.39.39 0 0 1 0-.76m-.29 2h.57v4.61h-.57v-4.61zM349.26 111a2.3 2.3 0 0 0 1.1.29.9.9 0 0 0 1-.82c0-1.09-2.2-.92-2.2-2.26a1.29 1.29 0 0 1 1.49-1.26 3.56 3.56 0 0 1 1.13.21l-.14.49a2.26 2.26 0 0 0-.92-.22.79.79 0 0 0-1 .77c0 .86 2.26.75 2.26 2.26a1.42 1.42 0 0 1-1.6 1.31 3.45 3.45 0 0 1-1.29-.21zM265.24 122.31a1.61 1.61 0 0 1-1.46.85 1.3 1.3 0 0 1-1.51-1.3c0-1.55 1.63-1.62 2.82-1.62h.11V120c0-.79.17-1.18-.59-1.18a2.43 2.43 0 0 0-1.35.38v-.55a3.59 3.59 0 0 1 1.35-.31c1.13 0 1.16.51 1.16 1.71v2a6.54 6.54 0 0 0 0 1h-.56v-.74zm-.05-1.58H265c-1 0-2.15.1-2.15 1.11a.82.82 0 0 0 1 .83 1.37 1.37 0 0 0 1.36-1.66v-.28zM270.51 122.67a2 2 0 0 1-2.15 2.33v-.49c1.46 0 1.59-1.07 1.59-2.37a1.42 1.42 0 0 1-1.39.9 2 2 0 0 1-1.93-2.3c0-1.4.54-2.41 1.89-2.41a1.51 1.51 0 0 1 1.43.63l.58-.52v4.23zm-2-.11c1 0 1.38-.92 1.39-1.82s-.32-1.92-1.36-1.92-1.36 1-1.36 1.92.36 1.82 1.32 1.82M275.23 122v1.08h-.55v-.82a1.45 1.45 0 0 1-1.48.93 1.51 1.51 0 0 1-1.56-1.77v-2.94h.57v2.8c0 .87.31 1.43 1.09 1.43a1.45 1.45 0 0 0 1.36-1.68v-2.55h.57V122zM276.16 122.38a2.3 2.3 0 0 0 1.1.29.9.9 0 0 0 1-.82c0-1.09-2.2-.93-2.2-2.26a1.29 1.29 0 0 1 1.49-1.26 3.6 3.6 0 0 1 1.13.21l-.14.5a2.26 2.26 0 0 0-.93-.22.79.79 0 0 0-1 .77c0 .86 2.26.75 2.26 2.26a1.42 1.42 0 0 1-1.6 1.31 3.41 3.41 0 0 1-1.29-.22zM286.33 117.45a3.28 3.28 0 0 0-1.4-.27 2.47 2.47 0 0 0-2.54 2.72 2.44 2.44 0 0 0 2.54 2.72 3.06 3.06 0 0 0 1.4-.27v.54a3.35 3.35 0 0 1-1.44.27 3 3 0 0 1-3.16-3.26 3 3 0 0 1 3.16-3.26 4 4 0 0 1 1.44.23zM290.36 122.31a1.61 1.61 0 0 1-1.45.85 1.3 1.3 0 0 1-1.51-1.3c0-1.55 1.64-1.62 2.82-1.62h.11V120c0-.79.17-1.18-.59-1.18a2.44 2.44 0 0 0-1.35.38v-.55a3.61 3.61 0 0 1 1.35-.31c1.13 0 1.16.51 1.16 1.72v2a6.56 6.56 0 0 0 0 1h-.56v-.74zm-.05-1.58h-.16c-1 0-2.15.1-2.15 1.11a.82.82 0 0 0 1 .83 1.38 1.38 0 0 0 1.36-1.66v-.28zm-.73-4.06h.71l-1.13 1.3h-.41zM292.29 116.45a.39.39 0 0 1 0 .76.39.39 0 0 1 0-.76m-.29 2h.57V123H292v-4.61z" transform="translate(-210 -25)"/><path class="cls-1" d="M83.77 91.45l.56-.54v7.14h-.56v-6.6z"/><path class="cls-1" d="M296.37 116.66h.71L296 118h-.41zm-.84 1.78h.57V123h-.57v-4.61zM299.09 118.33a2.43 2.43 0 1 1-2.14 2.41 2.15 2.15 0 0 1 2.14-2.41m0 4.33a2 2 0 1 0-1.52-1.92 1.66 1.66 0 0 0 1.52 1.92" transform="translate(-210 -25)"/><path class="cls-1" d="M305 119.06a2.15 2.15 0 0 0-.89-.23 1.71 1.71 0 0 0-1.72 1.92 1.74 1.74 0 0 0 1.66 1.92 2 2 0 0 0 .85-.21l.2.54a3.37 3.37 0 0 1-1.18.17 2.18 2.18 0 0 1-2.19-2.41 2.23 2.23 0 0 1 2.26-2.41 3.42 3.42 0 0 1 1.1.18zM305.84 116.45l.56-.54v3.31a1.56 1.56 0 0 1 1.43-.88c1.23 0 1.56.82 1.56 2V123h-.57v-2.7c0-.8-.15-1.48-1.09-1.48a1.52 1.52 0 0 0-1.36 1.76V123h-.56v-6.6zM312.59 118.93h-1v3a.63.63 0 0 0 .61.76 1.6 1.6 0 0 0 .56-.11v.42a2.08 2.08 0 0 1-.69.13c-1 0-1-.7-1-1.54v-2.69h-.9v-.49h.83v-.81l.57-.56v1.4h1v.49zM315.54 122.24a2.46 2.46 0 0 0 1.38.37 1.25 1.25 0 0 0 1.41-1.29c0-1.24-2.87-1.39-2.87-3a1.77 1.77 0 0 1 2-1.64 3.79 3.79 0 0 1 1.23.21l-.1.57a2.52 2.52 0 0 0-1.14-.23 1.16 1.16 0 0 0-1.36 1.08c0 1.26 2.88 1.27 2.88 3.11a1.84 1.84 0 0 1-2.06 1.78 3.53 3.53 0 0 1-1.42-.27z" transform="translate(-210 -25)"/><path class="cls-1" d="M109.92 91.45l.56-.54v7.14h-.56v-6.6z"/><path class="cls-1" d="M324.32 122.31a1.61 1.61 0 0 1-1.45.85 1.3 1.3 0 0 1-1.51-1.3c0-1.55 1.64-1.62 2.82-1.62h.11V120c0-.79.17-1.18-.59-1.18a2.44 2.44 0 0 0-1.35.38v-.55a3.61 3.61 0 0 1 1.35-.31c1.13 0 1.16.51 1.16 1.72v2a6.56 6.56 0 0 0 0 1h-.56v-.74zm-.05-1.58h-.17c-1 0-2.15.1-2.15 1.11a.82.82 0 0 0 1 .83 1.38 1.38 0 0 0 1.36-1.66v-.28zm-.73-4.06h.71l-1.13 1.3h-.42zM326.24 116.45a.39.39 0 0 1 0 .76.39.39 0 0 1 0-.76m-.29 2h.57V123H326v-4.61zM327.72 119.53v-1.08h.55v.82a1.45 1.45 0 0 1 1.48-.93 1.51 1.51 0 0 1 1.56 1.77V123h-.57v-2.8c0-.87-.3-1.43-1.09-1.43a1.45 1.45 0 0 0-1.36 1.68V123h-.57v-3.52zM334.47 118.93h-1v3a.63.63 0 0 0 .61.76 1.6 1.6 0 0 0 .56-.11v.42a2.08 2.08 0 0 1-.69.13c-1 0-1-.7-1-1.54v-2.69H332v-.49h.9v-.81l.57-.56v1.4h1v.49zM338.33 122.9a3.72 3.72 0 0 1-1.33.25c-1.52 0-2.08-1-2.08-2.41s.77-2.41 1.93-2.41 1.82 1 1.82 2.28v.29h-3.14a1.55 1.55 0 0 0 1.51 1.76 2.21 2.21 0 0 0 1.11-.34zm-.28-2.48a1.35 1.35 0 0 0-1.17-1.6 1.5 1.5 0 0 0-1.35 1.6h2.52z" transform="translate(-210 -25)"/><path class="cls-2" d="M52.05 5.84h2.44v4.94h4.87V5.84h2.44v12.22h-2.44V12.7h-4.87v5.36h-2.44V5.84z"/><path class="cls-2" d="M280.91 42.55a6.15 6.15 0 0 1-3.08.72c-3 0-4.69-1.72-4.69-4.68 0-2.61 1.38-4.76 4.16-4.76 3.33 0 4.27 2.29 4.27 5.45h-6.2a2.35 2.35 0 0 0 2.56 2.28 5.4 5.4 0 0 0 2.8-.91zm-1.57-4.89c-.07-1.14-.59-2.12-1.9-2.12a2 2 0 0 0-2.07 2.12h4zM284 34.51a8 8 0 0 1 3.12-.68c2.73 0 3 1.14 3 3.8v3.42c0 .67.1 1.31.16 2h-2.11a11 11 0 0 1-.1-1.35 3.2 3.2 0 0 1-2.77 1.56 2.87 2.87 0 0 1-3.14-2.68 2.65 2.65 0 0 1 1.5-2.58 7.06 7.06 0 0 1 3-.53H288c0-1.45.23-1.94-1.15-1.94a4.69 4.69 0 0 0-2.77 1zm1.86 7a2 2 0 0 0 1.64-.8 3 3 0 0 0 .49-1.86h-1c-1 0-2.6.18-2.6 1.56a1.22 1.22 0 0 0 1.48 1.1" transform="translate(-210 -25)"/><path class="cls-2" d="M81.75 5.8l2.33-1.75v14.01h-2.33V5.8z"/><path class="cls-2" d="M297 35.76h-1.72l.12-1.76h1.6v-1.1l2.33-2.33V34h2.07l-.18 1.72h-1.9V40c0 .77.21 1.49 1.1 1.49a2.22 2.22 0 0 0 1.1-.24v1.86a6.11 6.11 0 0 1-1.73.21 2.65 2.65 0 0 1-2.79-2.97v-4.59zM302.61 30.8l2.33-1.75v6.22a3.33 3.33 0 0 1 2.82-1.44c2.12 0 3 1.51 3 3.54v5.69h-2.33v-4.82c0-1.1 0-2.59-1.52-2.59-1.69 0-2.06 1.84-2.06 3v4.41h-2.33V30.8z" transform="translate(-210 -25)"/><path class="cls-2" d="M52.19 23.32h2.44v12.22h-2.44z"/><path class="cls-2" d="M266.33 51.52h2.21v1.23a3.35 3.35 0 0 1 2.94-1.44c2.13 0 3 1.51 3 3.54v5.69h-2.33v-4.81c0-1.1 0-2.59-1.52-2.59-1.69 0-2.06 1.84-2.06 3v4.41h-2.33v-9zM277.48 53.24h-1.72v-1.72h1.72v-1.26a2.75 2.75 0 0 1 2.86-3.06 8.2 8.2 0 0 1 1.71.19v1.94a2.54 2.54 0 0 0-1.18-.32 1.14 1.14 0 0 0-1 1.38v1.12h2v1.71h-2v7.3h-2.33v-7.3zM286.82 51.31a4.51 4.51 0 0 1 4.7 4.78 4.69 4.69 0 0 1-9.39 0 4.5 4.5 0 0 1 4.69-4.78m0 7.62c1.79 0 2.26-1.61 2.26-3.11s-.73-2.68-2.26-2.68-2.25 1.33-2.25 2.68.47 3.11 2.25 3.11M293.05 51.52h2.07v2a2.75 2.75 0 0 1 2.46-2.26 2.56 2.56 0 0 1 .71.07v2.36a2.42 2.42 0 0 0-1-.19c-1.9 0-1.9 2.38-1.9 3.68v3.31h-2.33v-9zM299.39 51.52h2.18v1.26a3.16 3.16 0 0 1 2.66-1.47 2.62 2.62 0 0 1 2.65 1.59 3.07 3.07 0 0 1 2.8-1.59c2.21 0 2.84 1.52 2.84 3.54v5.69h-2.34v-5.37c0-.84 0-2-1.34-2-1.55 0-1.74 1.86-1.74 3v4.38h-2.33v-5.38c0-.84 0-2-1.34-2-1.55 0-1.74 1.86-1.74 3v4.38h-2.33v-9zM315.49 52a8 8 0 0 1 3.12-.68c2.73 0 3 1.14 3 3.8v3.42c0 .66.1 1.31.16 2h-2.11a11.42 11.42 0 0 1-.11-1.35 3.2 3.2 0 0 1-2.77 1.56 2.87 2.87 0 0 1-3.14-2.68 2.65 2.65 0 0 1 1.53-2.57 7.09 7.09 0 0 1 3-.53h1.29c0-1.45.23-1.94-1.15-1.94a4.68 4.68 0 0 0-2.77 1zm1.86 7a2 2 0 0 0 1.64-.81 3 3 0 0 0 .49-1.86h-1c-1 0-2.6.18-2.6 1.56a1.22 1.22 0 0 0 1.48 1.1M324.32 53.24h-1.73l.17-1.71h1.55v-1.1l2.33-2.33v3.43h2.07l-.17 1.71h-1.9v4.2c0 .77.21 1.49 1.1 1.49a2.23 2.23 0 0 0 1.1-.24v1.86a6.1 6.1 0 0 1-1.72.21 2.65 2.65 0 0 1-2.84-2.93v-4.59zM330 51.52h2.33v9H330v-9zm1.17-3.89a1.12 1.12 0 1 1-1.12 1.12 1.12 1.12 0 0 1 1.12-1.12M338.23 51.31a4.51 4.51 0 0 1 4.7 4.78 4.69 4.69 0 0 1-9.39 0 4.5 4.5 0 0 1 4.69-4.78m0 7.62c1.79 0 2.26-1.61 2.26-3.11s-.73-2.68-2.26-2.68-2.23 1.32-2.23 2.68.47 3.11 2.25 3.11M344.07 51.52h2.21v1.23a3.35 3.35 0 0 1 2.94-1.44c2.13 0 3 1.51 3 3.54v5.69H350v-4.81c0-1.1 0-2.59-1.52-2.59-1.69 0-2.05 1.84-2.05 3v4.41h-2.33v-9zM263.46 69.48a8 8 0 0 1 3.12-.68c2.73 0 3 1.14 3 3.8v3.42c0 .67.1 1.31.16 2h-2.11a11 11 0 0 1-.11-1.35 3.21 3.21 0 0 1-2.77 1.56 2.87 2.87 0 0 1-3.14-2.68 2.65 2.65 0 0 1 1.53-2.55 7.09 7.09 0 0 1 3-.52h1.29c0-1.46.23-1.94-1.15-1.94a4.67 4.67 0 0 0-2.77 1zm1.86 7a2 2 0 0 0 1.64-.8 3 3 0 0 0 .49-1.86h-1c-1 0-2.6.18-2.6 1.56a1.22 1.22 0 0 0 1.48 1.1M271.17 69h2.21v1.22a3.35 3.35 0 0 1 2.94-1.44c2.13 0 3 1.51 3 3.54V78h-2.33v-4.79c0-1.1 0-2.59-1.52-2.59-1.69 0-2.06 1.84-2.06 3V78h-2.33v-9zM287.09 77a3.32 3.32 0 0 1-2.75 1.23c-2.75 0-3.76-2.28-3.76-4.75s1-4.7 3.76-4.7a3.18 3.18 0 0 1 2.66 1.27v-4.29l2.36-1.76v14h-2.26v-1zm-2.14-.6c1.55 0 2.06-1.64 2.06-2.92s-.59-2.87-2.09-2.87-1.92 1.67-1.92 2.88.43 2.92 2 2.92M303.83 80.34l-2.12-2.14a3 3 0 0 1-.57 0c-3.9 0-6-2.61-6-6.36s2.09-6.29 6-6.29 6 2.59 6 6.29c0 2.63-1.06 4.75-3.07 5.71l2.75 2.75h-2.94zm-2.7-4c2.49 0 3.41-2.22 3.41-4.43s-1-4.36-3.41-4.36-3.41 2.21-3.41 4.36.92 4.43 3.41 4.43M316.65 78h-2.21v-1.2a3.74 3.74 0 0 1-2.94 1.44c-2.12 0-3-1.51-3-3.54V69h2.33v4.82c0 1.1 0 2.59 1.51 2.59 1.69 0 2.06-1.84 2.06-3V69h2.34v9zM319.63 69.48a8 8 0 0 1 3.12-.68c2.73 0 3 1.14 3 3.8v3.42c0 .67.1 1.31.16 2h-2.11a10.91 10.91 0 0 1-.1-1.35 3.2 3.2 0 0 1-2.77 1.56 2.87 2.87 0 0 1-3.14-2.68 2.65 2.65 0 0 1 1.53-2.55 7.08 7.08 0 0 1 3-.52h1.29c0-1.46.23-1.94-1.15-1.94a4.67 4.67 0 0 0-2.77 1zm1.86 7a2 2 0 0 0 1.64-.8 3 3 0 0 0 .49-1.86h-1c-1 0-2.59.18-2.59 1.56a1.22 1.22 0 0 0 1.48 1.1" transform="translate(-210 -25)"/><path class="cls-2" d="M117.75 40.76l2.33-1.75v14.01h-2.33V40.76z"/><path class="cls-2" d="M331.89 69h2.33v9h-2.33v-9zm1.17-3.89a1.12 1.12 0 1 1-1.12 1.12 1.13 1.13 0 0 1 1.12-1.12M337.1 70.72h-1.73l.18-1.72h1.55v-1.1l2.33-2.33V69h2.07l-.17 1.71h-1.9v4.21c0 .77.21 1.48 1.1 1.48a2.21 2.21 0 0 0 1.1-.24v1.86a6.1 6.1 0 0 1-1.73.21 2.65 2.65 0 0 1-2.84-2.93v-4.58zM346.49 75.59l2.2-6.59h2.37l-3.37 9c-.75 2-1.69 4-4.13 4v-1.91a1.54 1.54 0 0 0 1.62-1.61L341.75 69h2.58zM266.54 83.28h2.75l4.77 12.22h-2.7l-1-2.8h-4.93l-1.06 2.8h-2.57zm1.34 2.45l-1.76 5h3.55zM283 95.51h-2.21v-1.23a3.74 3.74 0 0 1-2.94 1.44c-2.12 0-3-1.51-3-3.54v-5.69h2.33v4.81c0 1.1 0 2.59 1.52 2.59 1.69 0 2.06-1.84 2.06-3v-4.4H283v9zM285.44 88.2h-1.72l.17-1.72h1.55v-1.1l2.33-2.33v3.43h2.07l-.17 1.72h-1.9v4.2c0 .77.21 1.49 1.1 1.49a2.21 2.21 0 0 0 1.1-.25v1.86a6.08 6.08 0 0 1-1.73.21 2.65 2.65 0 0 1-2.84-2.93V88.2zM291.45 83.25l2.33-1.75v6.22a3.34 3.34 0 0 1 2.82-1.44c2.13 0 3 1.51 3 3.54v5.69h-2.33v-4.82c0-1.1 0-2.59-1.52-2.59-1.69 0-2.06 1.84-2.06 3v4.41h-2.33V83.25zM305.5 86.28a4.51 4.51 0 0 1 4.7 4.78 4.69 4.69 0 0 1-9.39 0 4.5 4.5 0 0 1 4.69-4.78m0 7.62c1.79 0 2.26-1.61 2.26-3.12s-.76-2.68-2.26-2.68-2.25 1.33-2.25 2.68.47 3.12 2.25 3.12M311.74 86.49h2.07v2.05a2.76 2.76 0 0 1 2.46-2.26 2.51 2.51 0 0 1 .71.07v2.37a2.36 2.36 0 0 0-1-.19c-1.9 0-1.9 2.38-1.9 3.68v3.31h-2.33v-9zM317.82 86.49h2.33v9h-2.33v-9zM319 82.6a1.12 1.12 0 1 1-1.12 1.12A1.12 1.12 0 0 1 319 82.6M323 88.2h-1.7l.17-1.72H323v-1.1l2.33-2.33v3.43h2.07l-.17 1.72h-1.9v4.2c0 .77.21 1.49 1.1 1.49a2.21 2.21 0 0 0 1.1-.25v1.86a6.08 6.08 0 0 1-1.73.21 2.65 2.65 0 0 1-2.8-2.92V88.2zM332.42 93.07l2.16-6.58H337l-3.36 8.95c-.75 2-1.69 4-4.13 4v-1.87a1.54 1.54 0 0 0 1.6-1.57l-3.43-9.47h2.58z" transform="translate(-210 -25)"/><path class="cls-1" d="M242.15 80.51a27.08 27.08 0 0 0 2.67-3c-.55-2.73-1.18-5.29-1.83-7.68a31.08 31.08 0 0 1-3.17 2.25c.91 3 1.68 5.77 2.33 8.39" transform="translate(-210 -25)"/><path class="cls-3" d="M246.95 56.7c-.67.58-1.39 1.15-2.15 1.69a73.89 73.89 0 0 1 1.91 5.85 23.58 23.58 0 0 0 1.67-2.36 47.82 47.82 0 0 0-1.43-5.18" transform="translate(-210 -25)"/><path class="cls-1" d="M245.84 65.28c-.27-.93-1.25-4.26-2-6.25-.43.28-.87.56-1.33.83s-.76.44-1.13.65c.33.93 1.6 4.55 2.3 7a30.17 30.17 0 0 0 2.14-2.18" transform="translate(-210 -25)"/><path class="cls-3" d="M249.61 62.44c.2 1.14.38 2.89.38 2.89l.18-2.08a14.8 14.8 0 0 0 .08-1.94q-.31.58-.64 1.13M250.08 58.17a29.35 29.35 0 0 0-.7-3.92 22.26 22.26 0 0 1-1.55 1.64c.52 1.5 1 3 1.35 4.57l.16-.32a18.35 18.35 0 0 0 .74-2" transform="translate(-210 -25)"/><path class="cls-1" d="M247.66 87.51c0 .67.08 1.5.08 1.84 0 1.33-.09 3.07-.18 4.78 0 .4 0 .8-.06 1.18.31-2 .63-4.09.69-4.92.1-1.4.15-2.83.18-4.27q-.35.73-.71 1.39M245.16 79.29a26.67 26.67 0 0 1-2.65 2.71c.71 3 1.25 5.8 1.67 8.32a24.21 24.21 0 0 0 2.17-3.25c-.32-2.71-.72-5.32-1.19-7.8M245.48 103.15a50.69 50.69 0 0 0 1.15-11.58c0-1.13 0-2-.05-2.27a23.15 23.15 0 0 1-2.13 2.79 91.4 91.4 0 0 1 1 11M247.83 75.52a26.22 26.22 0 0 1-1.6 2.41c.45 2.35.82 4.76 1.13 7.17.36-.79.71-1.65 1-2.58-.11-2.13-.35-5.19-.57-7" transform="translate(-210 -25)"/><path class="cls-3" d="M245 44.29c-.88.34-1.38.52-2.41.84 0 0 1.39 2.29 2.25 3.9a23.6 23.6 0 0 0 2.16-1.27c-.73-1.42-1.94-3.48-1.94-3.48" transform="translate(-210 -25)"/><path class="cls-4" d="M249.4 45.91c-.52-1.17-1.45-2.94-1.45-2.94a16.4 16.4 0 0 1-1.89.9s1.12 1.89 1.84 3.26a6.66 6.66 0 0 0 1.5-1.22" transform="translate(-210 -25)"/><path class="cls-3" d="M245.48 50.23c.69 1.41 1.31 2.84 1.85 4.28a19.77 19.77 0 0 0 1.61-1.83 32.58 32.58 0 0 0-1.4-3.72q-1 .66-2.07 1.27M242 51.88c.83 1.7 1.6 3.44 2.29 5.2a26.83 26.83 0 0 0 2.17-1.75c-.58-1.56-1.24-3.1-2-4.59q-1.18.6-2.51 1.14M249 78.41c.11-1.25.21-2.54.26-3.27.07-.94.11-1.88.12-2.83q-.33.81-.7 1.56c.15 1.21.24 2.93.32 4.54" transform="translate(-210 -25)"/><path class="cls-4" d="M251.3 48.4l.06-.18c.08-.48.14-1 .17-1.33a10.25 10.25 0 0 0 0-1.61c-.25.32-.51.64-.79.95a21 21 0 0 1 .57 2.18M250.68 55.86s.08-.79.14-1.6a17.64 17.64 0 0 0 0-2q-.3.46-.63.9c.23 1 .45 2.67.45 2.67M248.45 48.3a32.5 32.5 0 0 1 1.29 3.26 15.64 15.64 0 0 0 .87-1.53 19.18 19.18 0 0 0-.75-2.93 18.08 18.08 0 0 1-1.41 1.2" transform="translate(-210 -25)"/><path class="cls-1" d="M241 52.29c-.92.35-1.8.64-2.64.9.91 1.94 1.78 4 2.58 6 .8-.44 1.62-.94 2.45-1.49a73.14 73.14 0 0 0-2.39-5.45" transform="translate(-210 -25)"/><path class="cls-3" d="M241.53 45.45c-1 .29-1.55.44-2.66.7 0 0 1.57 2.7 2.52 4.52.83-.34 1.67-.71 2.5-1.13-.88-1.65-2.36-4.09-2.36-4.09" transform="translate(-210 -25)"/><path class="cls-5" d="M249.19 60.48l.15-.34-.16.32" transform="translate(-210 -25)"/><path class="cls-1" d="M234.06 47.23l-3.77.59q1.29 2.72 2.44 5.34c.57-.1 2-.37 3.89-.89-1.31-2.83-2.29-4.58-2.56-5M236.14 61.46c.92-.36 2.19-.89 3.63-1.62-.13-.37-.27-.73-.4-1.07-.76-2-1.5-3.74-2.18-5.25-1.74.48-3.15.77-3.91.91q1.56 3.62 2.86 7M236.62 62.72q1.57 4.2 2.79 8.07a32.27 32.27 0 0 0 3.18-2.35c-.78-2.72-1.58-5.17-2.35-7.32-1.43.72-2.69 1.25-3.62 1.6M237.74 46.42c-.83.19-1.72.37-2.64.55a81.9 81.9 0 0 1 2.63 5c.83-.25 1.72-.54 2.63-.88-.81-1.58-1.69-3.14-2.62-4.65" transform="translate(-210 -25)"/><path class="cls-4" d="M251.18 43.38l-.73-2a15.35 15.35 0 0 1-1.54 1.08 21.22 21.22 0 0 1 1.26 2.4l.15.35c1.36-.82.87-1.79.87-1.79M251.34 40.7a9.2 9.2 0 0 0 .71-.92 10.43 10.43 0 0 1 0 1.69 12.8 12.8 0 0 1-.19 1.32 10.4 10.4 0 0 0-.57-2.08z" transform="translate(-210 -25)"/><path class="cls-6" d="M248.3 31.88l-.3-.18q2.15 2.85 4 5.91l.06-.21c.55-1.77-.51-3.67-3.8-5.57" transform="translate(-210 -25)"/><path class="cls-7" d="M215.08 25.11C213.1 25 211.37 25 210 25c13.8 6.36 22.28 17.8 24.14 20.48.89-.14 1.77-.3 2.63-.47-4.4-6.31-12-14.89-21.69-19.9" transform="translate(-210 -25)"/><path class="cls-8" d="M238.19 44.72q1.28-.28 2.49-.61a67.3 67.3 0 0 0-18.15-18.53c-1.77-.16-3.47-.27-5.06-.35a64.94 64.94 0 0 1 20.71 19.5" transform="translate(-210 -25)"/><path class="cls-8" d="M242.07 43.72q1.13-.34 2.16-.71c-4.41-7.75-13.07-15.23-14.73-16.63a96.17 96.17 0 0 0-4.6-.57 64.89 64.89 0 0 1 17.17 17.91" transform="translate(-210 -25)"/><path class="cls-6" d="M245.38 42.58c.69-.27 1.34-.56 1.94-.86a70.21 70.21 0 0 0-11.48-14.2c-1.38-.3-2.77-.57-4.17-.8 1.31.94 7 5.34 13.72 15.86M248.25 41.23a14.67 14.67 0 0 0 1.63-1 86.21 86.21 0 0 0-8.3-11.23l-1.58-.45-2.32-.55s4.87 4.33 10.57 13.24M246.25 30.83c-.88-.4-1.81-.78-2.76-1.13l-.24-.1a79.79 79.79 0 0 1 7.39 9.94 6.44 6.44 0 0 0 .91-1c-2.15-3.56-5.32-7.69-5.32-7.69" transform="translate(-210 -25)"/><path class="cls-1" d="M246.24 66.85l-.49.54c-.51.54-1 1.07-1.61 1.59.65 2.34 1.22 4.74 1.72 7.15a25.11 25.11 0 0 0 1.66-2.86c-.33-2.15-.76-4.29-1.27-6.39" transform="translate(-210 -25)"/><path class="cls-3" d="M248.74 63.78s-.95 1.22-1.74 2.13c.1.36.93 3.38 1.28 5.44l.06-.15a21.85 21.85 0 0 0 .9-3 34.34 34.34 0 0 0-.55-4.46" transform="translate(-210 -25)"/></svg>